<?xml version="1.0" encoding="iso-8859-1"?>
<!-- Generator: Adobe Illustrator 19.0.0, SVG Export Plug-In . SVG Version: 6.00 Build 0)  -->
<svg version="1.1" id="Layer_1" xmlns="http://www.w3.org/2000/svg" xmlns:xlink="http://www.w3.org/1999/xlink" x="0px" y="0px"
	 viewBox="0 0 64 64" style="enable-background:new 0 0 64 64;" xml:space="preserve">
<g>
	<g>
		<path d="M59,0H5C2.243,0,0,2.243,0,5v54c0,2.757,2.243,5,5,5h54c2.757,0,5-2.243,5-5V5C64,2.243,61.757,0,59,0z M62,59
			c0,1.654-1.346,3-3,3H5c-1.654,0-3-1.346-3-3V5c0-1.654,1.346-3,3-3h54c1.654,0,3,1.346,3,3V59z"/>
	</g>
</g>
<g>
	<g>
		<path d="M59,4H5C4.448,4,4,4.448,4,5v5v11c0,0.552,0.448,1,1,1h4h4h4h4h4h4h4h4h22c0.552,0,1-0.448,1-1V5C60,4.448,59.552,4,59,4z
			 M8,20H6v-9h2V20z M12,20h-2v-9h2V20z M16,20h-2v-9h2V20z M20,20h-2v-9h2V20z M24,20h-2v-9h2V20z M28,20h-2v-9h2V20z M32,20h-2v-9
			h2V20z M36,20h-2v-9h2V20z M38,20v-4.566L42.581,20H38z M44.999,19.587l-6.586-6.566l1.59-1.604l2.241,2.241
			c0.02,0.023,0.028,0.053,0.05,0.075l4.286,4.273L44.999,19.587z M47.414,20l0.582-0.582L48.581,20H47.414z M50.999,19.587
			l-2.274-2.267c-0.008-0.008-0.01-0.019-0.018-0.027l-4.283-4.283l1.579-1.593L52.586,18L50.999,19.587z M58,20h-4.586l1.293-1.293
			c0.391-0.391,0.391-1.023,0-1.414l-8-8C46.519,9.105,46.265,9,46,9h-0.002c-0.266,0-0.521,0.107-0.708,0.296l-2.28,2.299
			l-2.303-2.302C40.519,9.105,40.265,9,40,9h-0.002c-0.266,0-0.521,0.107-0.708,0.296L38,10.597V10c0-0.552-0.448-1-1-1h-4h-4h-4h-4
			h-4h-4H9H6V6h52V20z"/>
	</g>
</g>
<g>
	<g>
		<path d="M59,24H5c-0.552,0-1,0.448-1,1v4v12c0,0.552,0.448,1,1,1h4h4h4h4h4h4h6h6h6h6h6c0.552,0,1-0.448,1-1V29v-4
			C60,24.448,59.552,24,59,24z M8,40H6V30h2V40z M12,40h-2V30h2V40z M16,40h-2V30h2V40z M20,40h-2V30h2V40z M22,40v-4.837L23.612,40
			H22z M25.721,40l-3.333-10h1.892l3.333,10H25.721z M34,40h-4V30h4V40z M40,40h-4V30h4V40z M46,40h-4V30h4V40z M52,40h-4V30h4V40z
			 M58,40h-4V30h4V40z M58,28h-5h-6h-6h-6h-6c-0.552,0-1,0.448-1,1v5.837l-2.051-6.154C25.812,28.275,25.431,28,25,28h-4h-4h-4H9H6
			v-2h52V28z"/>
	</g>
</g>
<g>
	<g>
		<path d="M59,44H5c-0.552,0-1,0.448-1,1v4v10c0,0.552,0.448,1,1,1h4h4h4h4h4h4h4h4h4h4h4h4h6c0.552,0,1-0.448,1-1V45
			C60,44.448,59.552,44,59,44z M8,58H6v-8h2V58z M12,58h-2v-8h2V58z M16,58h-2v-8h2V58z M20,58h-2v-8h2V58z M24,58h-2v-8h2V58z
			 M28,58h-2v-8h2V58z M32,58h-2v-8h2V58z M36,58h-2v-8h2V58z M40,58h-2v-8h2V58z M44,58h-2v-8h2V58z M48,58h-2v-8h2V58z M52,58h-2
			v-8h2V58z M58,58h-4v-9c0-0.552-0.448-1-1-1h-4h-4h-4h-4h-4h-4h-4h-4h-4h-4H9H6v-2h52V58z"/>
	</g>
</g>
<g>
</g>
<g>
</g>
<g>
</g>
<g>
</g>
<g>
</g>
<g>
</g>
<g>
</g>
<g>
</g>
<g>
</g>
<g>
</g>
<g>
</g>
<g>
</g>
<g>
</g>
<g>
</g>
<g>
</g>
</svg>
